<?xml version="1.0" encoding="UTF-8" standalone="no"?>
<!DOCTYPE svg PUBLIC "-//W3C//DTD SVG 1.1//EN" "http://www.w3.org/Graphics/SVG/1.1/DTD/svg11.dtd">
<svg width="100%" height="100%" viewBox="0 0 209 129" version="1.1" xmlns="http://www.w3.org/2000/svg" xmlns:xlink="http://www.w3.org/1999/xlink" xml:space="preserve" xmlns:serif="http://www.serif.com/" style="fill-rule:evenodd;clip-rule:evenodd;stroke-linecap:round;stroke-linejoin:round;stroke-miterlimit:1.5;">
    <g transform="matrix(1,0,0,1,-2901.14,-1313.25)">
        <g transform="matrix(1,0,0,1,-0.649129,35.4331)">
            <g transform="matrix(1,0,0,1,-347.88,-47.8734)">
                <g transform="matrix(1,0,0,1,31.6858,-37.7032)">
                    <path d="M3289.61,1421.75C3296.19,1428.82 3300.22,1438.3 3300.22,1448.71C3300.22,1470.58 3282.46,1488.34 3260.59,1488.34C3238.72,1488.34 3220.96,1470.58 3220.96,1448.71C3220.96,1426.84 3238.72,1409.09 3260.59,1409.09C3265.45,1409.09 3270.1,1409.96 3274.41,1411.57" style="fill:none;stroke:rgb(255,255,255);stroke-width:5.96px;"/>
                </g>
                <g transform="matrix(0.300286,-0.953849,0.953849,0.300286,1054.32,4087.09)">
                    <path d="M3289.61,1421.75C3296.19,1428.82 3300.22,1438.3 3300.22,1448.71C3300.22,1470.58 3282.46,1488.34 3260.59,1488.34C3238.72,1488.34 3220.96,1470.58 3220.96,1448.71C3220.96,1426.84 3238.72,1409.09 3260.59,1409.09C3265.45,1409.09 3270.1,1409.96 3274.41,1411.57" style="fill:none;stroke:rgb(255,255,255);stroke-width:5.96px;"/>
                </g>
                <g transform="matrix(1,0,0,1,0.649129,-35.4331)">
                    <path d="M3289.72,1443.04L3322,1389.02" style="fill:none;stroke:rgb(255,255,255);stroke-width:5.96px;"/>
                </g>
                <g transform="matrix(1,0,0,1,0.649129,-35.4331)">
                    <path d="M3307.77,1364.1L3350.59,1443.04L3289.72,1443.04" style="fill:none;stroke:rgb(255,255,255);stroke-width:5.96px;"/>
                </g>
                <g transform="matrix(1,0,0,1,0.649129,-35.4331)">
                    <path d="M3322,1389.02L3382.87,1389.02L3350.59,1443.04" style="fill:none;stroke:rgb(255,255,255);stroke-width:5.96px;"/>
                </g>
                <g transform="matrix(1,0,0,1,0.649129,-35.4331)">
                    <path d="M3369.79,1364.1L3416.77,1447.44L3369.79,1364.1C3369.79,1364.1 3404.01,1364.48 3404.31,1364.59C3409.44,1366.53 3412.69,1379.51 3399.21,1382.08" style="fill:none;stroke:rgb(255,255,255);stroke-width:5.96px;"/>
                </g>
                <g transform="matrix(1,0,0,1,0.649129,-35.4331)">
                    <path d="M3294.62,1364.1L3327.31,1364.1" style="fill:none;stroke:rgb(255,255,255);stroke-width:5.96px;"/>
                </g>
            </g>
        </g>
    </g>
</svg>
