<?xml version="1.0" encoding="UTF-8" standalone="no"?>
<!DOCTYPE svg PUBLIC "-//W3C//DTD SVG 1.1//EN" "http://www.w3.org/Graphics/SVG/1.1/DTD/svg11.dtd">
<svg width="100%" height="100%" viewBox="0 0 520 134" version="1.1" xmlns="http://www.w3.org/2000/svg" xmlns:xlink="http://www.w3.org/1999/xlink" xml:space="preserve" xmlns:serif="http://www.serif.com/" style="fill-rule:evenodd;clip-rule:evenodd;stroke-linejoin:round;stroke-miterlimit:2;">
    <g transform="matrix(1,0,0,1,2.66667,2.66667)">
        <g transform="matrix(2.66667,0,0,2.66667,0,0)">
            <clipPath id="_clip1">
                <path d="M5.998,4C4.894,4 4,4.892 4,5.998L4,42.003C4,43.106 4.886,44 5.998,44L187.001,44C188.105,44 189,43.109 189,42.003L189,5.998C189,4.895 188.113,4 187.001,4L5.998,4Z"/>
            </clipPath>
            <g clip-path="url(#_clip1)">
                <rect x="-1" y="-1" width="195" height="50" style="fill:rgb(252,77,0);fill-rule:nonzero;"/>
            </g>
        </g>
        <g transform="matrix(2.66667,0,0,2.66667,0,0)">
            <clipPath id="_clip2">
                <path d="M27,25.164L28.736,25.514C28.623,26.616 28.222,27.507 27.532,28.188C26.841,28.87 25.95,29.21 24.858,29.21C23.616,29.21 22.601,28.777 21.813,27.908C21.024,27.04 20.63,25.743 20.63,24.016C20.63,22.411 21.042,21.172 21.869,20.299C22.695,19.427 23.686,18.99 24.844,18.99C25.861,18.99 26.719,19.31 27.42,19.949C28.12,20.589 28.53,21.431 28.652,22.476L26.944,22.742C26.701,21.258 26.006,20.516 24.858,20.516C24.139,20.516 23.539,20.806 23.059,21.384C22.578,21.963 22.338,22.85 22.338,24.044C22.338,25.267 22.573,26.179 23.045,26.781C23.516,27.384 24.12,27.684 24.858,27.684C26.08,27.684 26.794,26.845 27,25.164ZM33.518,27.768C34.069,27.768 34.515,27.552 34.855,27.117C35.196,26.683 35.366,26.075 35.366,25.29C35.366,24.506 35.196,23.898 34.855,23.463C34.515,23.029 34.069,22.812 33.518,22.812C32.958,22.812 32.508,23.027 32.167,23.456C31.827,23.886 31.656,24.497 31.656,25.29C31.656,26.093 31.827,26.707 32.167,27.131C32.508,27.556 32.958,27.768 33.518,27.768ZM33.518,29.21C32.52,29.21 31.696,28.865 31.047,28.174C30.399,27.484 30.074,26.523 30.074,25.29C30.074,24.077 30.408,23.121 31.075,22.42C31.743,21.72 32.557,21.37 33.518,21.37C34.48,21.37 35.289,21.72 35.947,22.42C36.605,23.121 36.934,24.077 36.934,25.29C36.934,26.523 36.615,27.484 35.975,28.174C35.336,28.865 34.517,29.21 33.518,29.21ZM38.763,29L38.763,21.58L40.303,21.58L40.303,22.294L40.331,22.294C40.536,22.033 40.821,21.814 41.185,21.636C41.549,21.459 41.932,21.37 42.333,21.37C43.154,21.37 43.801,21.615 44.272,22.105C44.743,22.596 44.979,23.274 44.979,24.142L44.979,29L43.397,29L43.397,24.562C43.397,23.414 42.916,22.84 41.955,22.84C41.47,22.84 41.082,22.98 40.793,23.26C40.504,23.54 40.359,23.918 40.359,24.394L40.359,29L38.763,29ZM47.228,29L47.228,21.58L48.768,21.58L48.768,22.294L48.796,22.294C49.001,22.033 49.286,21.814 49.65,21.636C50.014,21.459 50.396,21.37 50.798,21.37C51.619,21.37 52.265,21.615 52.737,22.105C53.208,22.596 53.444,23.274 53.444,24.142L53.444,29L51.862,29L51.862,24.562C51.862,23.414 51.381,22.84 50.42,22.84C49.934,22.84 49.547,22.98 49.258,23.26C48.968,23.54 48.824,23.918 48.824,24.394L48.824,29L47.228,29ZM60.621,26.536L61.769,27.474C61.05,28.632 60.023,29.21 58.689,29.21C57.662,29.21 56.824,28.854 56.176,28.139C55.527,27.425 55.203,26.476 55.203,25.29C55.203,24.105 55.524,23.156 56.169,22.441C56.813,21.727 57.629,21.37 58.619,21.37C59.608,21.37 60.417,21.725 61.048,22.434C61.678,23.144 61.993,24.096 61.993,25.29L61.993,25.766L56.813,25.766C56.831,26.383 57.002,26.875 57.324,27.243C57.646,27.612 58.091,27.796 58.661,27.796C58.931,27.796 59.174,27.759 59.389,27.684C59.603,27.61 59.792,27.498 59.956,27.348C60.119,27.199 60.243,27.068 60.327,26.956C60.411,26.844 60.509,26.704 60.621,26.536ZM56.827,24.562L60.439,24.562C60.411,24.04 60.243,23.613 59.935,23.281C59.627,22.95 59.188,22.784 58.619,22.784C58.086,22.784 57.662,22.962 57.345,23.316C57.027,23.671 56.855,24.086 56.827,24.562ZM68.329,26.046L69.911,26.382C69.762,27.279 69.421,27.974 68.889,28.468C68.357,28.963 67.653,29.21 66.775,29.21C65.767,29.21 64.941,28.865 64.297,28.174C63.653,27.484 63.331,26.523 63.331,25.29C63.331,24.105 63.656,23.156 64.304,22.441C64.953,21.727 65.772,21.37 66.761,21.37C67.611,21.37 68.311,21.625 68.861,22.133C69.412,22.642 69.734,23.302 69.827,24.114L68.329,24.366C68.171,23.33 67.653,22.812 66.775,22.812C66.206,22.812 65.753,23.029 65.417,23.463C65.081,23.898 64.913,24.506 64.913,25.29C64.913,26.075 65.077,26.683 65.403,27.117C65.73,27.552 66.187,27.768 66.775,27.768C67.643,27.768 68.161,27.195 68.329,26.046ZM72.02,26.522L72.02,22.952L70.9,22.952L70.9,21.58L72.062,21.58L72.062,19.76L73.574,19.76L73.574,21.58L75.436,21.58L75.436,22.952L73.588,22.952L73.588,26.354C73.588,26.765 73.651,27.052 73.777,27.215C73.903,27.379 74.162,27.46 74.554,27.46L75.142,27.46L75.142,29L74.428,29C73.532,29 72.907,28.802 72.552,28.405C72.197,28.009 72.02,27.381 72.02,26.522ZM81.992,29L80.354,21.58L81.922,21.58L82.972,26.746L83,26.746L84.764,21.58L86.206,21.58L87.858,26.732L87.886,26.732L89.076,21.58L90.616,21.58L88.838,29L87.298,29L85.492,23.428L85.464,23.428L83.518,29L81.992,29ZM92.402,29L92.402,21.58L93.998,21.58L93.998,29L92.402,29ZM92.374,20.362L92.374,18.78L94.026,18.78L94.026,20.362L92.374,20.362ZM96.695,26.522L96.695,22.952L95.575,22.952L95.575,21.58L96.737,21.58L96.737,19.76L98.249,19.76L98.249,21.58L100.111,21.58L100.111,22.952L98.263,22.952L98.263,26.354C98.263,26.765 98.326,27.052 98.452,27.215C98.578,27.379 98.837,27.46 99.229,27.46L99.817,27.46L99.817,29L99.103,29C98.207,29 97.582,28.802 97.227,28.405C96.872,28.009 96.695,27.381 96.695,26.522ZM101.87,29L101.87,18.78L103.466,18.78L103.466,22.308L103.494,22.308C103.662,22.056 103.937,21.837 104.32,21.65C104.702,21.464 105.09,21.37 105.482,21.37C106.275,21.37 106.919,21.613 107.414,22.098C107.908,22.584 108.156,23.246 108.156,24.086L108.156,29L106.574,29L106.574,24.464C106.574,23.979 106.443,23.587 106.182,23.288C105.92,22.99 105.542,22.84 105.048,22.84C104.572,22.84 104.189,22.98 103.9,23.26C103.61,23.54 103.466,23.9 103.466,24.338L103.466,29L101.87,29Z"/>
            </clipPath>
            <g clip-path="url(#_clip2)">
                <rect x="15.63" y="13.78" width="97.526" height="20.43" style="fill:white;fill-rule:nonzero;"/>
            </g>
        </g>
        <g transform="matrix(2.66667,0,0,2.66667,0,0)">
            <clipPath id="_clip3">
                <path d="M160.015,18.725L157.573,23.694L155.13,18.725L151.538,18.725L157.573,31L163.604,18.725L160.015,18.725ZM140.167,23.064C140.167,22.69 140.038,22.412 139.782,22.232C139.527,22.05 139.178,21.96 138.742,21.96L137.108,21.96L137.108,24.221L138.726,24.221C139.174,24.221 139.527,24.121 139.782,23.923C140.038,23.725 140.167,23.449 140.167,23.097L140.167,23.064ZM149.175,18L155.208,30.276L151.617,30.276L149.175,25.307L146.735,30.276L140.022,30.276L137.908,26.976L137.108,26.976L137.108,30.276L133.36,30.276L133.36,18.725L138.838,18.725C139.841,18.725 140.666,18.843 141.311,19.08C141.958,19.316 142.477,19.639 142.872,20.046C143.215,20.397 143.471,20.794 143.642,21.232C143.812,21.673 143.898,22.191 143.898,22.783L143.898,22.818C143.898,23.664 143.701,24.38 143.305,24.962C142.911,25.545 142.372,26.009 141.687,26.349L143.635,29.279L149.175,18ZM165.966,18L159.934,30.276L163.525,30.276L165.966,25.307L168.409,30.276L172,30.276L165.966,18ZM122.487,21.99L125.786,21.99L125.786,30.276L129.534,30.276L129.534,21.99L132.833,21.99L132.833,18.725L122.487,18.725L122.487,21.99ZM122.352,25.061C122.581,25.468 122.696,25.964 122.696,26.546L122.696,26.58C122.696,27.184 122.579,27.73 122.343,28.213C122.109,28.698 121.777,29.107 121.351,29.444C120.923,29.779 120.405,30.037 119.797,30.219C119.189,30.401 118.505,30.492 117.748,30.492C116.606,30.492 115.54,30.329 114.553,30.005C113.565,29.68 112.715,29.193 112,28.545L114.001,26.087C114.609,26.57 115.25,26.917 115.922,27.126C116.594,27.335 117.262,27.44 117.924,27.44C118.266,27.44 118.511,27.395 118.66,27.308C118.811,27.22 118.884,27.099 118.884,26.945L118.884,26.912C118.884,26.746 118.774,26.607 118.556,26.499C118.338,26.389 117.928,26.274 117.331,26.153C116.701,26.02 116.1,25.865 115.53,25.69C114.959,25.515 114.457,25.289 114.025,25.013C113.592,24.739 113.248,24.391 112.991,23.973C112.735,23.555 112.607,23.043 112.607,22.438L112.607,22.405C112.607,21.854 112.711,21.342 112.92,20.87C113.126,20.397 113.431,19.983 113.832,19.632C114.232,19.28 114.73,19.005 115.323,18.806C115.913,18.608 116.594,18.509 117.364,18.509C118.452,18.509 119.404,18.642 120.221,18.907C121.038,19.169 121.771,19.565 122.423,20.093L120.598,22.702C120.064,22.304 119.501,22.016 118.909,21.834C118.315,21.652 117.759,21.561 117.235,21.561C116.958,21.561 116.753,21.605 116.619,21.693C116.484,21.781 116.419,21.897 116.419,22.04L116.419,22.073C116.419,22.228 116.519,22.36 116.723,22.47C116.927,22.58 117.321,22.695 117.907,22.817C118.623,22.948 119.274,23.108 119.862,23.294C120.448,23.483 120.954,23.721 121.375,24.013C121.797,24.305 122.123,24.653 122.352,25.061Z"/>
            </clipPath>
            <g clip-path="url(#_clip3)">
                <rect x="107" y="13" width="70" height="23" style="fill:white;fill-rule:nonzero;"/>
            </g>
        </g>
    </g>
</svg>
