<?xml version="1.0" encoding="UTF-8" standalone="no"?>
<!DOCTYPE svg PUBLIC "-//W3C//DTD SVG 1.1//EN" "http://www.w3.org/Graphics/SVG/1.1/DTD/svg11.dtd">
<svg width="100%" height="100%" viewBox="0 0 158 163" version="1.1" xmlns="http://www.w3.org/2000/svg" xmlns:xlink="http://www.w3.org/1999/xlink" xml:space="preserve" xmlns:serif="http://www.serif.com/" style="fill-rule:evenodd;clip-rule:evenodd;stroke-linecap:round;stroke-linejoin:round;stroke-miterlimit:1.5;">
    <g transform="matrix(1,0,0,1,-2911.68,-2623.02)">
        <g transform="matrix(1,0,0,1,-0.649129,35.4331)">
            <g transform="matrix(1,0,0,1,27.642,-0.154583)">
                <g transform="matrix(1,0,0,1,-361.593,-75.3276)">
                    <path d="M3303.47,2789.85C3310.69,2796.88 3316.76,2802.66 3318.88,2804.36C3325,2809.26 3336.44,2819.47 3355.64,2821.11C3374.84,2822.74 3387.87,2823.82 3394.04,2821.52C3400.26,2819.2 3403.97,2797.34 3397.31,2790.88C3393.44,2787.12 3382.56,2784.03 3379.29,2774.64C3376.03,2765.24 3347.06,2706.72 3343.39,2702.64C3339.71,2698.55 3331.41,2688.94 3322.83,2699.15C3314.25,2709.36 3313.6,2715.75 3308.92,2713.96C3304.19,2712.16 3301.72,2704.68 3301.31,2696.51C3300.9,2688.34 3301.16,2674.04 3299.67,2669.96C3297.95,2665.21 3293.46,2664.94 3289.87,2668.32C3289.87,2668.32 3280.88,2683.85 3277.21,2690.79C3273.53,2697.74 3265.36,2712.03 3260.46,2716.94C3255.55,2721.84 3243.71,2733.69 3252.29,2741.04C3260.87,2748.39 3264.59,2751.38 3269.08,2755.87M3276.77,2763.11C3279.14,2765.47 3278.99,2765.52 3282.1,2768.6M3289.46,2776.11C3292.29,2778.91 3290.6,2777.27 3293.44,2780.06C3302.9,2789.34 3287.49,2774.16 3289.46,2776.11" style="fill:none;stroke:rgb(255,255,255);stroke-width:5.96px;"/>
                </g>
                <g transform="matrix(1,0,0,1,-361.593,-75.3276)">
                    <path d="M3354.45,2722.68L3335.41,2737.64" style="fill:none;stroke:rgb(255,255,255);stroke-width:5.96px;"/>
                </g>
                <g transform="matrix(1,0,0,1,-361.593,-75.3276)">
                    <path d="M3261.8,2715.46C3261.8,2715.46 3320.55,2779.27 3325.05,2782.2" style="fill:none;stroke:rgb(255,255,255);stroke-width:5.96px;"/>
                </g>
                <g transform="matrix(0.960083,0.0291705,0.0291705,0.978683,-308.603,-114.051)">
                    <path d="M3363.43,2740.36L3341.68,2756.26" style="fill:none;stroke:rgb(255,255,255);stroke-width:5.97px;"/>
                </g>
                <g transform="matrix(1,0,0,1,-361.593,-75.3276)">
                    <path d="M3370.55,2756.26L3349,2771.74" style="fill:none;stroke:rgb(255,255,255);stroke-width:5.96px;"/>
                </g>
            </g>
        </g>
    </g>
</svg>
