<svg fill="" xmlns="http://www.w3.org/2000/svg" viewBox="0 0 16 16" width="100%" height="100%"><path d="M14 2.73l-.81 2.49h-3a3.78 3.78 0 00-5.76 0H2.36A1.61 1.61 0 001 6a1.63 1.63 0 00-.1 1.59l2.46 5.62h8.35l3.38-10.48H14zM6 5.22a2.73 2.73 0 012.6 0 2.92 2.92 0 011.09 1c.283.45.435.969.44 1.5a2.781 2.781 0 01-.56 1.66 2.79 2.79 0 01-4.26.34 1.81 1.81 0 01-.28-.34 2.64 2.64 0 01-.36-.66 2.91 2.91 0 01-.15-.58 2.999 2.999 0 01-.05-.42 3 3 0 01.09-.67c.1-.299.249-.58.44-.83a3 3 0 011.05-1H6zm4.93 7H4L1.81 7.16a.63.63 0 010-.62.61.61 0 01.52-.32h1.5a4.13 4.13 0 00-.24.83 3.71 3.71 0 00-.07.67 3.83 3.83 0 007.66 0c0-.516-.105-1.027-.31-1.5h2l-1.94 6z" fill=""></path></svg>