<?xml version="1.0" encoding="UTF-8" standalone="no"?>
<!DOCTYPE svg PUBLIC "-//W3C//DTD SVG 1.1//EN" "http://www.w3.org/Graphics/SVG/1.1/DTD/svg11.dtd">
<svg width="100%" height="100%" viewBox="0 0 16 16" version="1.1" xmlns="http://www.w3.org/2000/svg" xmlns:xlink="http://www.w3.org/1999/xlink" xml:space="preserve" xmlns:serif="http://www.serif.com/" style="fill-rule:evenodd;clip-rule:evenodd;stroke-linecap:round;stroke-linejoin:round;stroke-miterlimit:1.5;">
    <path d="M12.56 3.64L14.16.5h-3.31L9.64 2.82a4.378 4.378 0 00-.52 2l-1.1 2.06L6.91 4.8a4.446 4.446 0 00-.51-1.98L5.18.5h-3.3l1.6 3.14A3.258 3.258 0 006.1 5.42l1.35 2.54-1.88 3.54H4.5v1h.53L3.17 16H4.3l1.86-3.5h.873v-1H6.7l1.32-2.48 1.31 2.48h-.3v1h.84l1.86 3.5h1.14l-1.86-3.5h.515v-1H10.47L8.58 7.95l1.35-2.53a3.29 3.29 0 002.63-1.78zm-2.04-.35l.94-1.79h1.06l-.85 1.68a2.327 2.327 0 01-1.51 1.2 3.5 3.5 0 01.36-1.09zm-6.15-.11L3.51 1.5h1.06l.94 1.79c.18.341.3.71.36 1.09a2.31 2.31 0 01-1.5-1.2z" fill=""></path>
</svg>