<svg fill="" xmlns="http://www.w3.org/2000/svg" viewBox="0 0 16 16" width="100%" height="100%"><path d="M3.54 9l-.78-.85H.81l.75.85h2-.02zm1.2 1.33L4 9.48H2l.75.85h2-.01zm6.94-4.83a3.78 3.78 0 00-2.41.86l-.1.08.41.95.18-.16a2.79 2.79 0 011.92-.75 2.84 2.84 0 01.51 5.64v-.66a1.78 1.78 0 00-1.11-1.64L10 9.47 8.05 5.22a1.13 1.13 0 00-.83-.62 1.16 1.16 0 00-1 .31l-.56.56-.14-.14V3.21a1.3 1.3 0 00-.36-.9l-.71-.76L1.2 5a1.33 1.33 0 00-.71 2.15l.51.52h1.33l-1.1-1.2a.35.35 0 01-.07-.24.26.26 0 01.19-.23.28.28 0 01.3 0l4.42 4.88V9.44L2.39 5.38l-.09-.1L4.46 3a.31.31 0 01.06.19v2.54l1.13 1.19 1.29-1.29a.12.12 0 01.11 0 .15.15 0 01.09 0l.21.48-1.08 1v1.36l1.51-1.38.22.48-1.15 1V10l1.58-1.46.78 1.76 1.52.46a.76.76 0 01.45.7v.68H6.34l-1.17-1.33h-2l.75.85h.72l.57.63v1.52h1v-.7h.5v.69h1v-.69h.54v.68h1v-.68h.55v.68h.93v-.67h.49v.67h1v-.69a3.82 3.82 0 00-.51-7.6h-.03z" fill=""></path></svg>