<svg fill="" xmlns="http://www.w3.org/2000/svg" viewBox="0 0 16 16" width="100%" height="100%"><path d="M12.84 5.65v3.22l-.11-.07-1.13-.35L9.7 4.2a1.12 1.12 0 00-1.81-.3l-.56.56-.15-.15V2.19a1.29 1.29 0 00-.35-.9L6.12.54 2.86 4a1.31 1.31 0 00-.71 2.17h1.38l-.64-.71a.3.3 0 01-.08-.23A.29.29 0 013.3 5l.37-.33L3.3 5l1 1.13.24.27 1.38 1.52.25.28 1.32 1.45V8.16l-3.44-3.8-.05-.1L6.12 2a.31.31 0 01.06.19v2.52l1.13 1.18L8.6 4.6a.1.1 0 01.11 0 .12.12 0 01.09 0l.35.79-.89.82v1.38l1.32-1.22.32.73L9 8v1.32l1.38-1.26.54 1.22 1.51.46a.75.75 0 01.46.7v.68L8 11.09l-.39-.43H6.26l1 1.05v3.93h1v-3.55h5.63V5.65h-1.05zM6 8.92H4.68l.67.74H6.7L6 8.92zM4.44 7.16H3.09l.69.76h1.35l-.69-.76z" fill=""></path></svg>