<svg fill="" xmlns="http://www.w3.org/2000/svg" viewBox="0 0 16 16" width="100%" height="100%"><path d="M4 9.5a1.5 1.5 0 100-3 1.5 1.5 0 000 3zm0-2a.5.5 0 110 1 .5.5 0 010-1z" fill=""></path><path d="M4 11.5c.913 0 1.79-.36 2.442-1h5.336a2 2 0 10.236-2.326l-2.3-1.213a.4.4 0 01-.214-.353V6h-1v.607c.003.328.122.644.336.892H7.449a3.493 3.493 0 10-3.45 4.001zm9.5-3a1 1 0 110 2 1 1 0 010-2zm-6.051 0h3.015l1.088.56a1.987 1.987 0 00-.052.44H7.149a3.44 3.44 0 00.3-1zm-3.45-3a2.5 2.5 0 110 5 2.5 2.5 0 010-5z" fill=""></path></svg>